<?xml version="1.0" encoding="utf-8"?>
<!-- Generator: Adobe Illustrator 21.0.2, SVG Export Plug-In . SVG Version: 6.00 Build 0)  -->
<svg width="40" height="40" version="1.1" id="Capa_1" xmlns="http://www.w3.org/2000/svg" xmlns:xlink="http://www.w3.org/1999/xlink" x="0px" y="0px"
	 viewBox="0 0 51.9 51.9" style="enable-background:new 0 0 51.9 51.9;" xml:space="preserve">
<style type="text/css">
	.st0{fill:#144B98;}
	.st1{fill:#FFFFFF;}
</style>
<circle class="st0" cx="25.9" cy="25.6" r="24.7"/>
<g>
	<path class="st1" d="M15.4,18.1v13.6l0,0v5c0,0.4,0.2,0.5,0.5,0.3l4.4-5.1c0.1-0.1,0.3-0.2,0.5-0.2h14c1,0,1.7-0.8,1.7-1.7V18.1
		c0-1-0.8-1.7-1.7-1.7H17.1C16.1,16.4,15.4,17.1,15.4,18.1z M29.4,23.9c0-0.8,0.6-1.4,1.4-1.4s1.4,0.6,1.4,1.4
		c0,0.8-0.6,1.4-1.4,1.4C30,25.3,29.4,24.7,29.4,23.9z M24.6,23.9c0-0.8,0.6-1.4,1.4-1.4s1.4,0.6,1.4,1.4c0,0.8-0.6,1.4-1.4,1.4
		C25.2,25.3,24.6,24.7,24.6,23.9z M19.7,23.9c0-0.8,0.6-1.4,1.4-1.4c0.8,0,1.4,0.6,1.4,1.4c0,0.8-0.6,1.4-1.4,1.4
		C20.3,25.3,19.7,24.7,19.7,23.9z"/>
</g>
</svg>
