<?xml version="1.0" encoding="utf-8"?>
<!-- Generator: Adobe Illustrator 21.0.2, SVG Export Plug-In . SVG Version: 6.00 Build 0)  -->
<svg version="1.1" id="Capa_1" xmlns="http://www.w3.org/2000/svg" xmlns:xlink="http://www.w3.org/1999/xlink" x="0px" y="0px"
	 viewBox="0 0 512 512" style="enable-background:new 0 0 512 512;" xml:space="preserve">
<style type="text/css">
	.st0{fill:#FFFFFF;}
</style>
<g>
	<g>
		<path class="st0" d="M371.2,52.6H30.9c-15.8,0-28.6,12.8-28.6,28.6v204.2c0,15.8,12.8,28.6,28.6,28.6H53v76
			c0,4.8,2.9,9.2,7.4,11.1c1.5,0.6,3,0.9,4.6,0.9c3.1,0,6.2-1.2,8.5-3.5l84.5-84.5h16.9c6.6,0,12-5.4,12-12c0-6.6-5.4-12-12-12
			c0,0-22.5,0-22.7,0c-2.8,0.2-5.5,1.3-7.7,3.5l-67.6,67.6c0,0,0-59.8-0.1-60.2c-0.5-6.1-5.7-10.9-11.9-10.9h-34
			c-2.6,0-4.6-2.1-4.6-4.6V81.2c0-2.6,2.1-4.6,4.6-4.6h340.4c2.6,0,4.6,2.1,4.6,4.6v78.3c0,6.6,5.4,12,12,12c6.6,0,12-5.4,12-12
			V81.2C399.8,65.4,387,52.6,371.2,52.6z"/>
	</g>
</g>
<g>
	<g>
		<path class="st0" d="M481.1,199H242.9c-15.8,0-28.6,12.8-28.6,28.6v139.3c0,15.8,12.8,28.6,28.6,28.6H392l60.4,60.4
			c2.3,2.3,5.4,3.5,8.5,3.5c1.5,0,3.1-0.3,4.6-0.9c4.5-1.9,7.4-6.2,7.4-11.1v-52h8.2c15.8,0,28.6-12.8,28.6-28.6V227.6
			C509.7,211.8,496.9,199,481.1,199z M485.8,366.9c0,2.6-2.1,4.6-4.6,4.6h-20.2c-6.3,0-11.4,4.9-11.9,11c0,0.3-0.1,36-0.1,36
			l-43.5-43.5c0,0-0.1-0.1-0.1-0.1c-0.2-0.2-0.3-0.3-0.5-0.4c-2.1-1.8-4.9-3-7.9-3H242.9c-2.6,0-4.6-2.1-4.6-4.6V227.6
			c0-2.6,2.1-4.6,4.6-4.6h238.2c2.6,0,4.6,2.1,4.6,4.6V366.9z"/>
	</g>
</g>
<g>
	<g>
		<path class="st0" d="M362,285.3c-6.6,0-12,5.4-12,12s5.4,12,12,12c6.6,0,12-5.4,12-12S368.6,285.3,362,285.3z"/>
	</g>
</g>
<g>
	<g>
		<path class="st0" d="M310,131.7H92.1c-6.6,0-12,5.4-12,12s5.4,12,12,12H310c6.6,0,12-5.4,12-12S316.6,131.7,310,131.7z"/>
	</g>
</g>
<g>
	<g>
		<path class="st0" d="M174.8,210.9H92.1c-6.6,0-12,5.4-12,12s5.4,12,12,12h82.7c6.6,0,12-5.4,12-12S181.4,210.9,174.8,210.9z"/>
	</g>
</g>
<g>
	<g>
		<path class="st0" d="M306.4,285.3c-6.6,0-12,5.4-12,12s5.4,12,12,12c6.6,0,12-5.4,12-12S313,285.3,306.4,285.3z"/>
	</g>
</g>
<g>
	<g>
		<path class="st0" d="M417.6,285.3c-6.6,0-12,5.4-12,12s5.4,12,12,12c6.6,0,12-5.4,12-12S424.2,285.3,417.6,285.3z"/>
	</g>
</g>
</svg>
