<svg width="48" height="47" viewBox="0 0 48 47" fill="none" xmlns="http://www.w3.org/2000/svg">
<path d="M47.5991 15.4966C47.4332 15.3362 47.2203 15.2304 46.9901 15.1941C46.7599 15.1577 46.5238 15.1925 46.3147 15.2936C42.931 16.9319 39.9982 19.3996 37.7502 22.4799C35.3449 19.1775 32.1996 16.6411 28.6418 15.041C28.7931 13.7364 28.8633 11.4463 27.7556 10.1375C27.2171 9.50072 26.4696 9.16345 25.5945 9.16345C18.0723 9.16345 13.8688 13.0934 12.8529 14.1775C7.87253 15.7972 3.51455 19.1765 0.568085 23.8837L0.209404 24.4576L0.568085 25.0309C3.54356 29.7825 7.95639 33.1804 12.9959 34.781C14.2143 36.0283 18.3687 39.6489 25.5951 39.6489C26.4696 39.6489 27.2171 39.3127 27.7561 38.6753C28.8353 37.3986 28.7968 35.1891 28.6534 33.8705C32.2059 32.2694 35.3465 29.7345 37.7496 26.4362C39.9982 29.5181 42.9305 31.9848 46.3147 33.6236C46.526 33.726 46.765 33.7605 46.9974 33.722C47.2299 33.6835 47.444 33.574 47.6091 33.4092C47.7747 33.2448 47.8829 33.0334 47.9186 32.8052C47.9542 32.5769 47.9153 32.3435 47.8075 32.1382C43.9722 24.847 47.7832 16.8265 47.8201 16.748C47.9213 16.5429 47.9543 16.312 47.9147 16.0876C47.8751 15.8632 47.7647 15.6565 47.5991 15.4966V15.4966ZM25.5945 11.3559C25.8314 11.3559 25.9364 11.4246 26.0302 11.5362C26.4274 12.0041 26.5145 13.1368 26.458 14.1894C24.2591 13.4676 21.9554 13.0989 19.6362 13.0975C19.046 13.0975 18.4605 13.129 17.8782 13.176C19.7169 12.2133 22.2773 11.3559 25.5945 11.3559ZM12.1356 32.131C8.44325 30.6068 5.2014 27.9712 2.84729 24.4586C5.20193 20.9455 8.44325 18.3109 12.1356 16.7867C15.6137 21.2337 15.6127 27.6825 12.1356 32.131ZM26.0308 37.2787C25.9363 37.3893 25.8319 37.4574 25.5951 37.4574C22.4276 37.4574 19.9506 36.676 18.1319 35.7675C18.6329 35.8021 19.135 35.8198 19.6373 35.8207C21.9893 35.8207 24.2875 35.4395 26.4644 34.7273C26.5092 35.75 26.4153 36.8248 26.0308 37.2787V37.2787ZM19.6367 33.6272C17.8154 33.6272 16.0325 33.3674 14.3209 32.885C17.8338 27.8865 17.8338 21.0291 14.3219 16.0316C16.0492 15.5424 17.8381 15.2927 19.6362 15.29C26.343 15.29 32.5704 18.7045 36.4267 24.4576C32.572 30.2133 26.3441 33.6272 19.6367 33.6272V33.6272ZM44.5635 30.0542C42.4246 28.5688 40.5637 26.6748 39.0783 24.4581C40.6017 22.1876 42.5159 20.2554 44.7207 18.7551C43.9516 21.447 43.267 25.6563 44.5635 30.0542V30.0542Z" fill="#0688CC"/>
<path d="M9.3236 22.5393C9.02654 22.5393 8.74164 22.6549 8.53158 22.8606C8.32152 23.0663 8.20351 23.3452 8.20351 23.6361C8.20351 23.927 8.32152 24.2059 8.53158 24.4116C8.74164 24.6173 9.02654 24.7328 9.3236 24.7328C9.47024 24.7323 9.61534 24.7035 9.75061 24.648C9.88588 24.5926 10.0087 24.5116 10.112 24.4097C10.2153 24.3078 10.2971 24.1869 10.3527 24.0541C10.4083 23.9212 10.4366 23.7789 10.436 23.6353C10.4367 23.3456 10.32 23.0675 10.1114 22.862C9.90283 22.6565 9.61948 22.5404 9.3236 22.5393V22.5393ZM26.217 20.7224C24.864 19.5484 22.1565 19.8304 21.629 19.8991C21.335 19.9375 21.0686 20.0885 20.8881 20.3189C20.7076 20.5493 20.6276 20.8403 20.6658 21.1283C20.705 21.4163 20.8591 21.6774 21.0943 21.8544C21.3296 22.0315 21.6269 22.1101 21.9212 22.073C23.2072 21.9103 24.6061 22.1127 24.7606 22.4428C24.7606 22.4877 24.7596 22.5936 24.5654 22.7527C24.2569 23.0062 23.7574 23.1519 23.3834 23.2025C23.1785 23.193 22.9733 23.1917 22.7683 23.1984C22.4898 23.2065 22.2244 23.3159 22.0239 23.5054C21.8234 23.6949 21.7022 23.9508 21.6841 24.2231C21.666 24.4953 21.7522 24.7644 21.9258 24.9778C22.0995 25.1912 22.3482 25.3335 22.6233 25.3769C22.8927 25.4164 23.1659 25.4246 23.4372 25.4012C24.2553 25.4652 24.6034 25.7245 24.681 25.896C24.7516 26.0509 24.6694 26.2885 24.4747 26.4832C24.1018 26.8597 23.3069 27.104 22.1955 26.6635C21.9205 26.5542 21.6125 26.5564 21.3392 26.6695C21.0659 26.7827 20.8497 26.9975 20.7381 27.2667C20.6265 27.536 20.6288 27.8376 20.7443 28.1052C20.8598 28.3728 21.0792 28.5845 21.3542 28.6938C22.0605 28.9747 22.7188 29.0925 23.3164 29.0925C24.5327 29.0925 25.4933 28.6044 26.083 28.0074C26.918 27.1624 27.1701 25.9853 26.7265 25.0071C26.5976 24.7288 26.4196 24.4749 26.2006 24.2572C26.7144 23.7593 26.9892 23.1452 26.9997 22.4707C27.0092 21.7791 26.7376 21.1748 26.217 20.7224V20.7224Z" fill="#0688CC"/>
</svg>
