<svg width="48" height="42" viewBox="0 0 48 42" fill="none" xmlns="http://www.w3.org/2000/svg">
<g clip-path="url(#clip0_1_16)">
<path d="M23.71 28.2557C22.71 27.2569 18.02 29.1047 17.14 33.5093C13.2672 31.7873 10.1685 28.696 8.44 24.8299C9.84354 24.5704 11.132 23.8826 12.1278 22.8611C13.1235 21.8397 13.7777 20.535 14 19.1268C14.11 18.4176 14.16 18.7173 6.72 11.2763C5.53 10.0977 0 12.6846 0 17.9782C0 40.4009 29.1 48.7009 31 36.1062C31.1 35.397 31.15 35.6967 23.71 28.2557ZM24 39.9515C18.1652 39.9515 12.5695 37.6365 8.44365 33.5157C4.31785 29.3949 2 23.8059 2 17.9782C1.98004 16.8699 2.32985 15.7864 2.9943 14.8985C3.65876 14.0106 4.60009 13.3688 5.67 13.0741L11.91 19.3066C11.615 20.3752 10.9723 21.3154 10.0834 21.979C9.19442 22.6427 8.10966 22.992 7 22.9721C6.8415 22.9743 6.6858 23.0141 6.54574 23.0882C6.40568 23.1624 6.28526 23.2687 6.19443 23.3984C6.10359 23.5282 6.04494 23.6776 6.0233 23.8345C6.00167 23.9913 6.01768 24.151 6.07 24.3005C7.02353 26.967 8.55911 29.3882 10.5654 31.3887C12.5718 33.3891 14.9986 34.9187 17.67 35.8664C17.8181 35.9182 17.9762 35.9345 18.1318 35.914C18.2873 35.8934 18.4358 35.8366 18.5653 35.7481C18.6947 35.6596 18.8015 35.542 18.8771 35.4046C18.9526 35.2673 18.9947 35.1142 19 34.9576C18.9823 33.8509 19.3331 32.7698 19.9974 31.8839C20.6617 30.9981 21.6018 30.3578 22.67 30.0635L28.91 36.3059C28.6112 37.3708 27.967 38.3065 27.0784 38.9663C26.1898 39.6261 25.107 39.9726 24 39.9515V39.9515Z" fill="#0688CC"/>
<path d="M43 0H21C19.6739 0 18.4021 0.526145 17.4645 1.46269C16.5268 2.39923 16 3.66946 16 4.99394V12.9842C16 14.3087 16.5268 15.5789 17.4645 16.5155C18.4021 17.452 19.6739 17.9782 21 17.9782H27V22.9721C27 23.237 27.1054 23.491 27.2929 23.6784C27.4804 23.8657 27.7348 23.9709 28 23.9709C28.39 23.9709 27.63 24.3604 38.28 17.9782H43C43.6566 17.9782 44.3068 17.849 44.9134 17.598C45.52 17.3471 46.0712 16.9792 46.5355 16.5155C46.9998 16.0517 47.3681 15.5012 47.6194 14.8953C47.8707 14.2894 48 13.64 48 12.9842V4.99394C48 4.33812 47.8707 3.68873 47.6194 3.08284C47.3681 2.47695 46.9998 1.92642 46.5355 1.46269C46.0712 0.99896 45.52 0.63111 44.9134 0.380141C44.3068 0.129172 43.6566 0 43 0V0ZM46 12.9842C46 13.7789 45.6839 14.5411 45.1213 15.103C44.5587 15.6649 43.7956 15.9806 43 15.9806C38 15.9806 37.82 15.9207 37.49 16.1204L29 21.2043V16.9794C29 16.7145 28.8946 16.4604 28.7071 16.2731C28.5196 16.0858 28.2652 15.9806 28 15.9806H21C20.2044 15.9806 19.4413 15.6649 18.8787 15.103C18.3161 14.5411 18 13.7789 18 12.9842V4.99394C18 4.19925 18.3161 3.43712 18.8787 2.87519C19.4413 2.31326 20.2044 1.99757 21 1.99757H43C43.7956 1.99757 44.5587 2.31326 45.1213 2.87519C45.6839 3.43712 46 4.19925 46 4.99394V12.9842Z" fill="#0688CC"/>
<path d="M26 6.7518C26 6.28559 25.8146 5.83847 25.4845 5.5088C25.1544 5.17914 24.7068 4.99393 24.24 4.99393H21C20.7348 4.99393 20.4804 5.09916 20.2929 5.28647C20.1054 5.47378 20 5.72783 20 5.99272C20 6.25762 20.1054 6.51166 20.2929 6.69897C20.4804 6.88628 20.7348 6.99151 21 6.99151H24C23.69 8.28993 20 8.13013 20 11.2264C20 11.6926 20.1854 12.1397 20.5155 12.4694C20.8456 12.799 21.2932 12.9842 21.76 12.9842H25C25.2652 12.9842 25.5196 12.879 25.7071 12.6917C25.8946 12.5044 26 12.2503 26 11.9854C26 11.7206 25.8946 11.4665 25.7071 11.2792C25.5196 11.0919 25.2652 10.9867 25 10.9867H22C22.34 9.67825 26 9.85803 26 6.7518Z" fill="#0688CC"/>
<path d="M31 5.99272V7.9903H29V5.99272C29 5.72783 28.8946 5.47378 28.7071 5.28647C28.5196 5.09916 28.2652 4.99393 28 4.99393C27.7348 4.99393 27.4804 5.09916 27.2929 5.28647C27.1054 5.47378 27 5.72783 27 5.99272V8.98908C27 9.25398 27.1054 9.50802 27.2929 9.69533C27.4804 9.88264 27.7348 9.98787 28 9.98787H31V11.9854C31 12.2503 31.1054 12.5044 31.2929 12.6917C31.4804 12.879 31.7348 12.9842 32 12.9842C32.2652 12.9842 32.5196 12.879 32.7071 12.6917C32.8946 12.5044 33 12.2503 33 11.9854V5.99272C33 5.72783 32.8946 5.47378 32.7071 5.28647C32.5196 5.09916 32.2652 4.99393 32 4.99393C31.7348 4.99393 31.4804 5.09916 31.2929 5.28647C31.1054 5.47378 31 5.72783 31 5.99272Z" fill="#0688CC"/>
<path d="M40 4.99394C39.7348 4.99394 39.4804 5.09917 39.2929 5.28647C39.1054 5.47378 39 5.72783 39 5.99272C39 6.25762 39.1054 6.51166 39.2929 6.69897C39.4804 6.88628 39.7348 6.99151 40 6.99151H41.38L39.11 11.536C39.0129 11.7688 39.0076 12.0297 39.0952 12.2662C39.1827 12.5028 39.3566 12.6975 39.5819 12.8113C39.8073 12.9251 40.0674 12.9495 40.31 12.8797C40.5526 12.8099 40.7598 12.651 40.89 12.4349C44.15 5.92281 44.25 6.10259 43.89 5.44339C43.53 4.78419 43.17 4.99394 40 4.99394Z" fill="#0688CC"/>
<path d="M36 4.75423L34 12.7445C33.9477 12.9974 33.9954 13.2606 34.1332 13.4791C34.271 13.6976 34.4882 13.8542 34.7391 13.9162C34.9901 13.9782 35.2553 13.9408 35.4792 13.8117C35.7031 13.6826 35.8682 13.472 35.94 13.2239L37.94 5.23364C37.9923 4.98079 37.9446 4.71752 37.8068 4.49907C37.669 4.28061 37.4518 4.12395 37.2009 4.06193C36.9499 3.99992 36.6847 4.03738 36.4608 4.16645C36.2369 4.29552 36.0718 4.50618 36 4.75423V4.75423Z" fill="#0688CC"/>
</g>
<defs>
<clipPath id="clip0_1_16">
<rect width="48" height="42" fill="white"/>
</clipPath>
</defs>
</svg>
