<svg width="48" height="41" viewBox="0 0 48 41" fill="none" xmlns="http://www.w3.org/2000/svg">
<path d="M47.3917 28.7C46.7166 27.4568 45.7293 26.4198 44.5315 25.6957C43.3337 24.9715 41.9686 24.5864 40.5767 24.58C40.9317 23.8815 41.1197 23.107 41.125 22.32V14C41.125 13.7348 41.0218 13.4804 40.8382 13.2929C40.6546 13.1054 40.4055 13 40.1458 13H39.1667V11H40.1458C40.4055 11 40.6546 10.8946 40.8382 10.7071C41.0218 10.5196 41.125 10.2652 41.125 10V6C41.125 5.73478 41.0218 5.48043 40.8382 5.29289C40.6546 5.10536 40.4055 5 40.1458 5H38.1875C37.5949 5.01794 37.0215 5.21858 36.5427 5.57554C36.0638 5.9325 35.7019 6.42908 35.5046 7H30.3542C30.0945 7 29.8454 7.10536 29.6618 7.29289C29.4782 7.48043 29.375 7.73478 29.375 8C29.375 8.26522 29.4782 8.51957 29.6618 8.70711C29.8454 8.89464 30.0945 9 30.3542 9H35.5046C35.6508 9.4194 35.8866 9.80031 36.1948 10.1151C36.503 10.4299 36.876 10.6707 37.2867 10.82V13H36.3075C36.0478 13 35.7988 13.1054 35.6151 13.2929C35.4315 13.4804 35.3283 13.7348 35.3283 14V15H32.3908C31.6118 15 30.8646 15.3161 30.3137 15.8787C29.7628 16.4413 29.4533 17.2044 29.4533 18V22C29.4571 22.7271 29.7193 23.4281 30.1912 23.9725C30.6631 24.517 31.3125 24.8679 32.0187 24.96L30.9025 26.1C30.6277 26.3811 30.3009 26.6036 29.9412 26.7546C29.5815 26.9057 29.196 26.9823 28.8071 26.98H24.8904C24.1591 26.9809 23.4351 26.8308 22.762 26.5386C22.089 26.2465 21.4807 25.8184 20.9738 25.28C20.5264 24.825 20.1742 24.2819 19.9385 23.6837C19.7029 23.0855 19.5887 22.4446 19.6029 21.8C19.7916 20.4293 20.3023 19.1255 21.0913 18C21.8703 17.9284 22.5896 17.5436 23.0909 16.9304C23.5923 16.3172 23.8345 15.5257 23.7644 14.73C23.6943 13.9344 23.3175 13.1997 22.7171 12.6878C22.1166 12.1758 21.3416 11.9284 20.5625 12H17.625V1C17.625 0.734784 17.5218 0.48043 17.3382 0.292893C17.1546 0.105357 16.9055 0 16.6458 0H4.89583C4.63614 0 4.38709 0.105357 4.20346 0.292893C4.01983 0.48043 3.91667 0.734784 3.91667 1V13C3.91667 13.2652 4.01983 13.5196 4.20346 13.7071C4.38709 13.8946 4.63614 14 4.89583 14H8.08792C7.97317 14.3205 7.91354 14.6588 7.91167 15C7.91362 15.4967 8.03632 15.9852 8.26875 16.4215C8.50118 16.8579 8.83606 17.2285 9.24333 17.5C7.37328 18.4959 5.66291 19.7773 4.17125 21.3C1.46875 24 0 30 0 34C0 34.2652 0.103162 34.5196 0.286791 34.7071C0.470421 34.8946 0.719476 35 0.979167 35H5.97292C6.22252 36.3787 6.937 37.6246 7.99232 38.5214C9.04764 39.4181 10.3771 39.9091 11.75 39.9091C13.1229 39.9091 14.4524 39.4181 15.5077 38.5214C16.563 37.6246 17.2775 36.3787 17.5271 35H30.6088C31.3653 35.0013 32.111 34.8161 32.7825 34.46L32.9196 34.36C33.0834 35.0592 33.3404 35.7321 33.6833 36.36C33.7448 36.4758 33.8281 36.578 33.9284 36.6609C34.0287 36.7437 34.144 36.8055 34.2678 36.8426C34.3915 36.8798 34.5212 36.8916 34.6495 36.8774C34.7777 36.8633 34.9019 36.8234 35.015 36.76L35.7787 36.34C36.0943 37.1211 36.5678 37.8254 37.1683 38.4067C37.7687 38.988 38.4827 39.4332 39.2633 39.7132C40.044 39.9931 40.8737 40.1015 41.6983 40.0313C42.5228 39.961 43.3235 39.7137 44.0479 39.3055C44.7724 38.8973 45.4042 38.3374 45.9021 37.6626C46.4 36.9877 46.7527 36.213 46.9371 35.3893C47.1215 34.5656 47.1334 33.7113 46.9722 32.8826C46.8109 32.0538 46.48 31.2691 46.0013 30.58L47.0196 30C47.23 29.8705 47.385 29.6649 47.4539 29.4241C47.5229 29.1833 47.5006 28.9249 47.3917 28.7ZM38.1875 7H39.1667V9H38.1875C37.9278 9 37.6788 8.89464 37.4951 8.70711C37.3115 8.51957 37.2083 8.26522 37.2083 8C37.2083 7.73478 37.3115 7.48043 37.4951 7.29289C37.6788 7.10536 37.9278 7 38.1875 7ZM31.3333 22V18C31.3333 17.7348 31.4365 17.4804 31.6201 17.2929C31.8038 17.1054 32.0528 17 32.3125 17H35.25V20.34C35.2538 20.7673 35.1669 21.1903 34.9954 21.58C34.8463 21.9081 34.6407 22.2062 34.3883 22.46L33.8792 22.98H32.3321C32.2035 22.9827 32.0756 22.9594 31.9559 22.9116C31.8361 22.8638 31.7267 22.7923 31.6339 22.7013C31.5412 22.6103 31.4669 22.5015 31.4153 22.3812C31.3637 22.2609 31.3359 22.1313 31.3333 22ZM20.5625 14C20.8222 14 21.0712 14.1054 21.2549 14.2929C21.4385 14.4804 21.5417 14.7348 21.5417 15C21.5417 15.2652 21.4385 15.5196 21.2549 15.7071C21.0712 15.8946 20.8222 16 20.5625 16H10.7708C10.5111 16 10.2621 15.8946 10.0785 15.7071C9.89483 15.5196 9.79167 15.2652 9.79167 15C9.79167 14.7348 9.89483 14.4804 10.0785 14.2929C10.2621 14.1054 10.5111 14 10.7708 14H20.5625ZM5.875 2H15.6667V4H5.875V2ZM5.875 12V6H15.6667V12H5.875ZM11.75 38C10.8839 37.9971 10.0431 37.7011 9.35923 37.1583C8.67535 36.6155 8.18695 35.8565 7.97042 35H15.5296C15.3131 35.8565 14.8246 36.6155 14.1408 37.1583C13.4569 37.7011 12.6161 37.9971 11.75 38ZM6.75625 33H5.875C5.875 31.4087 6.49397 29.8826 7.59575 28.7574C8.69752 27.6321 10.1919 27 11.75 27C13.3081 27 14.8025 27.6321 15.9043 28.7574C17.006 29.8826 17.625 31.4087 17.625 33H6.75625ZM31.7054 32.78C31.3584 32.9289 30.9852 33.0038 30.6088 33H19.5833C19.5833 30.8783 18.758 28.8434 17.289 27.3431C15.82 25.8429 13.8275 25 11.75 25C9.67247 25 7.68003 25.8429 6.211 27.3431C4.74196 28.8434 3.91667 30.8783 3.91667 33H1.95833C2.17375 29.44 3.50542 24.8 5.56167 22.7C7.30458 20.94 10.7708 18 14.6875 18H18.7608C18.1417 19.1568 17.7555 20.4284 17.625 21.74C17.6066 22.656 17.7707 23.5662 18.1074 24.4154C18.444 25.2646 18.9462 26.0351 19.5833 26.68C20.2684 27.4076 21.0892 27.9878 21.9973 28.3862C22.9054 28.7847 23.8825 28.9934 24.8708 29H28.7875C29.4322 28.9986 30.0703 28.8671 30.6652 28.6131C31.26 28.3591 31.7999 27.9876 32.2537 27.52L34.9954 24.72L35.7787 23.92C36.1949 23.4986 36.5332 23.004 36.7775 22.46C37.0631 21.8329 37.2165 21.1515 37.2279 20.46V16V15H39.1862V22.32C39.193 23.0585 38.9273 23.7724 38.4421 24.32L31.7054 32.78ZM41.125 38C40.3304 38.0001 39.5545 37.7534 38.9005 37.2926C38.2464 36.8318 37.745 36.1787 37.4629 35.42L39.95 34.02L40.3221 34.56C40.3967 34.6677 40.4913 34.7593 40.6005 34.8297C40.7098 34.9 40.8315 34.9477 40.9588 34.97C41.0861 34.9922 41.2165 34.9887 41.3424 34.9595C41.4684 34.9304 41.5875 34.8762 41.6929 34.8C41.7984 34.7238 41.8881 34.6272 41.9569 34.5156C42.0258 34.4041 42.0725 34.2797 42.0943 34.1497C42.1161 34.0197 42.1127 33.8866 42.0841 33.758C42.0556 33.6293 42.0025 33.5077 41.9279 33.4L41.6733 33.04L44.2583 31.58C44.7004 32.1742 44.9709 32.8828 45.0393 33.6258C45.1077 34.3688 44.9711 35.1165 44.6452 35.7844C44.3192 36.4523 43.8168 37.0138 43.1947 37.4053C42.5726 37.7968 41.8557 38.0028 41.125 38ZM44.0429 29.44L34.9758 34.56C34.7182 33.8028 34.6181 32.999 34.6821 32.2L38.9512 26.82C40.0583 26.4999 41.233 26.5187 42.3296 26.8743C43.4262 27.2298 44.3965 27.9064 45.12 28.82L44.0429 29.44Z" fill="#0688CC"/>
</svg>
