<svg xmlns="http://www.w3.org/2000/svg" width="47.962" height="41.25" viewBox="0 0 47.962 41.25">
  <g id="Shopping_Basket" data-name="Shopping Basket" transform="translate(-0.038 -2.75)">
    <path id="Path_11" data-name="Path 11" d="M48,18a4,4,0,0,0-4-4H41.41L31.21,3.79a3.13,3.13,0,0,0-4.42,4.42L32.59,14H15.41l5.8-5.79a3.13,3.13,0,1,0-4.42-4.42L6.59,14H4a4,4,0,0,0-.85,7.9l3,16.35A7,7,0,0,0,13,44H35a7,7,0,0,0,6.89-5.75l3-16.35A4,4,0,0,0,48,18ZM28.21,6.79a1.12,1.12,0,0,1,1.58-1.58L38.59,14H35.41Zm-10-1.58A1.12,1.12,0,0,1,20.12,6c0,.67.27.2-7.53,8H9.41Zm21.7,32.68A5,5,0,0,1,35,42H13a5,5,0,0,1-4.92-4.11L5.2,22H42.8ZM44,20H4a2,2,0,0,1,0-4H44a2,2,0,0,1,0,4Z" fill="#f0f0f0"/>
    <path id="Path_12" data-name="Path 12" d="M14,39a3,3,0,0,0,3-3V28a3,3,0,0,0-6,0v8A3,3,0,0,0,14,39ZM13,28a1,1,0,0,1,2,0v8a1,1,0,0,1-2,0Z" fill="#f0f0f0"/>
    <path id="Path_13" data-name="Path 13" d="M24,39a3,3,0,0,0,3-3V28a3,3,0,0,0-6,0v8A3,3,0,0,0,24,39ZM23,28a1,1,0,0,1,2,0v8a1,1,0,0,1-2,0Z" fill="#f0f0f0"/>
    <path id="Path_14" data-name="Path 14" d="M34,39a3,3,0,0,0,3-3V28a3,3,0,0,0-6,0v8A3,3,0,0,0,34,39ZM33,28a1,1,0,0,1,2,0v8a1,1,0,0,1-2,0Z" fill="#f0f0f0"/>
  </g>
</svg>
