<svg width="35" height="47" viewBox="0 0 35 47" fill="none" xmlns="http://www.w3.org/2000/svg">
<path d="M33.8257 13.5313C30.9345 11.8048 30.6097 11.7656 30.8192 11.2653C31.9296 8.57746 32.7572 7.41992 31.6992 6.05638C30.6411 4.69284 29.0593 5.07541 26.0633 5.21275C25.4976 5.21275 25.55 4.94789 24.6596 1.82842C24.5457 1.4328 24.3282 1.07005 24.0268 0.773033C23.7254 0.476018 23.3496 0.254134 22.9335 0.127491C22.5174 0.000848605 22.0741 -0.0265488 21.6438 0.0477824C21.2135 0.122114 20.8098 0.295823 20.4693 0.553167C17.7352 2.61319 17.6095 2.86824 17.18 2.5151C14.7706 0.729741 13.8278 -0.398368 12.0888 0.131352C10.3499 0.661073 10.287 2.15214 9.51185 4.81055C9.36519 5.31084 9.17663 5.18332 5.59397 5.00674C5.15669 4.98304 4.72007 5.06284 4.32439 5.23878C3.92872 5.41472 3.58673 5.68113 3.32997 6.01345C3.07321 6.34576 2.90994 6.73327 2.85524 7.14023C2.80054 7.54719 2.85616 7.9605 3.01697 8.34202C4.26357 11.2849 4.49403 11.5203 4.01216 11.8146C1.39325 13.3842 0 13.8649 0 15.5619C0 17.259 1.49801 17.7985 4.01216 19.3092C4.48356 19.5937 4.27405 19.7604 3.01697 22.7818C2.85616 23.1633 2.80054 23.5767 2.85524 23.9836C2.90994 24.3906 3.07321 24.7781 3.32997 25.1104C3.58673 25.4427 3.92872 25.7091 4.32439 25.8851C4.72007 26.061 5.15669 26.1408 5.59397 26.1171L7.03961 26.0877C7.03961 47.7474 6.85105 46.3544 7.47958 46.786C8.33858 47.3844 8.22335 47.149 17.5152 40.3901L26.3042 46.786C26.5239 46.9442 26.8016 47.0145 27.0765 46.9814C27.3514 46.9483 27.601 46.8146 27.7708 46.6094C28.0851 46.2367 27.9908 46.8645 27.9908 26.0877C29.4469 26.1563 30.725 26.4016 31.6992 25.1067C32.7467 23.6941 31.8668 22.4287 30.8192 19.8978C30.6097 19.3975 30.9135 19.3681 33.8257 17.6219C34.1866 17.3984 34.4827 17.0946 34.6876 16.7376C34.8924 16.3807 34.9996 15.9818 34.9996 15.5766C34.9996 15.1714 34.8924 14.7726 34.6876 14.4156C34.4827 14.0587 34.1866 13.7549 33.8257 13.5313V13.5313ZM16.8762 38.3693L9.13473 44.0491V26.0092C10.2766 26.2741 9.42804 31.1887 12.9059 31.1887C14.1316 31.1887 14.6135 30.6001 17.1905 28.6578C17.62 28.3341 17.6933 28.5499 20.4798 30.6197C20.8203 30.8771 21.224 31.0508 21.6543 31.1251C22.0845 31.1994 22.5278 31.172 22.944 31.0454C23.3601 30.9188 23.7359 30.6969 24.0373 30.3999C24.3387 30.1028 24.5562 29.7401 24.6701 29.3445C26.2519 23.8118 25.8957 23.184 25.8957 44.0491L18.1542 38.4184C17.9769 38.2792 17.7553 38.1989 17.5241 38.19C17.2929 38.1811 17.0651 38.2442 16.8762 38.3693ZM32.6944 16.0132L29.8869 17.6906C29.3798 17.9955 28.9994 18.4537 28.8088 18.989C28.6183 19.5244 28.629 20.1047 28.8393 20.6335C30.6097 24.8713 30.9973 24.2533 26.1471 24.008C25.5491 23.9866 24.9608 24.1539 24.4764 24.4829C23.992 24.812 23.6397 25.2838 23.4758 25.8228L22.6064 28.8442C22.5833 28.9219 22.5401 28.9932 22.4807 29.0516C22.4212 29.1099 22.3472 29.1537 22.2654 29.1789C22.1835 29.2041 22.0963 29.2101 22.0114 29.1962C21.9265 29.1823 21.8466 29.149 21.7788 29.0992L19.1389 27.1373C16.3629 25.0478 13.7964 29.5407 12.7174 29.2169C11.6384 28.8932 12.4241 23.8609 8.84141 24.0375C3.95978 24.2827 4.38928 24.8811 6.14918 20.6629C6.35949 20.1341 6.37027 19.5538 6.1797 19.0185C5.98914 18.4831 5.60871 18.0249 5.10162 17.72L2.33606 16.0132C2.26255 15.9687 2.20211 15.9077 2.16025 15.8357C2.1184 15.7638 2.09648 15.6831 2.09648 15.6012C2.09648 15.5192 2.1184 15.4386 2.16025 15.3666C2.20211 15.2946 2.26255 15.2336 2.33606 15.1892L5.14352 13.5117C5.65061 13.2068 6.03104 12.7486 6.2216 12.2133C6.41217 11.6779 6.4014 11.0976 6.19108 10.5688C4.90258 7.47878 4.82925 7.51801 5.04924 7.22372C5.70921 6.36048 10.6223 8.61669 11.5546 5.37951L12.4241 2.35814C12.4447 2.27884 12.4866 2.20578 12.5458 2.14584C12.605 2.0859 12.6795 2.04106 12.7623 2.01554C12.8451 1.99002 12.9334 1.98467 13.0191 1.99999C13.1047 2.0153 13.1847 2.05079 13.2516 2.10309L15.8915 4.06502C16.3572 4.41698 16.9377 4.60893 17.5362 4.60893C18.1347 4.60893 18.7151 4.41698 19.1808 4.06502V4.06502L21.8207 2.10309C21.8885 2.05335 21.9684 2.02005 22.0533 2.00615C22.1382 1.99225 22.2254 1.99818 22.3073 2.02341C22.3891 2.04863 22.4631 2.09238 22.5226 2.15077C22.582 2.20916 22.6252 2.28039 22.6483 2.35814L23.5177 5.37951C23.6799 5.91938 24.0319 6.39223 24.5166 6.72157C25.0014 7.0509 25.5906 7.21746 26.189 7.1943C29.7821 7.00791 29.7926 6.92944 30.0231 7.1943C30.6726 8.04773 26.8804 11.6773 29.9079 13.5019L32.7153 15.1793C32.79 15.225 32.8511 15.2877 32.8926 15.3616C32.9342 15.4356 32.9549 15.5182 32.9528 15.6017C32.9507 15.6852 32.9259 15.7669 32.8807 15.8389C32.8354 15.9109 32.7713 15.9709 32.6944 16.0132V16.0132Z" fill="#0688CC"/>
<path d="M17.5152 5.79149C15.4433 5.79149 13.418 6.36682 11.6953 7.44472C9.97258 8.52261 8.6299 10.0547 7.83702 11.8471C7.04415 13.6396 6.8367 15.612 7.2409 17.5149C7.64511 19.4178 8.64281 21.1657 10.1079 22.5376C11.5729 23.9095 13.4395 24.8438 15.4715 25.2223C17.5036 25.6008 19.6099 25.4065 21.5241 24.6641C23.4382 23.9216 25.0743 22.6643 26.2254 21.0511C27.3765 19.4379 27.9908 17.5413 27.9908 15.6011C27.9908 12.9995 26.8872 10.5043 24.9226 8.66467C22.958 6.82501 20.2935 5.79149 17.5152 5.79149V5.79149ZM17.5152 23.4489C15.8577 23.4489 14.2374 22.9886 12.8593 22.1263C11.4811 21.264 10.407 20.0383 9.77266 18.6043C9.13837 17.1703 8.9724 15.5924 9.29577 14.0701C9.61913 12.5478 10.4173 11.1495 11.5893 10.052C12.7614 8.95444 14.2546 8.20702 15.8803 7.90421C17.5059 7.60141 19.191 7.75682 20.7223 8.35079C22.2536 8.94477 23.5625 9.95063 24.4833 11.2412C25.4042 12.5317 25.8957 14.049 25.8957 15.6011C25.8957 17.6825 25.0128 19.6786 23.4411 21.1503C21.8695 22.622 19.7379 23.4489 17.5152 23.4489Z" fill="#0688CC"/>
<path d="M20.8884 12.05L16.0277 17.7298L14.2992 16.1112C14.0988 15.9505 13.841 15.8666 13.5774 15.8761C13.3137 15.8856 13.0636 15.988 12.8771 16.1627C12.6905 16.3374 12.5812 16.5716 12.571 16.8185C12.5608 17.0653 12.6505 17.3067 12.8221 17.4944C15.6087 20.1038 15.5458 20.1822 16.122 20.1822C16.6981 20.1822 16.5934 20.1822 22.5226 13.2664C22.6678 13.0618 22.7258 12.8135 22.6849 12.5707C22.6441 12.328 22.5074 12.1084 22.302 11.9555C22.0965 11.8026 21.8373 11.7274 21.5755 11.7449C21.3137 11.7624 21.0685 11.8713 20.8884 12.05V12.05Z" fill="#0688CC"/>
</svg>
