<svg width="2083" height="357" viewBox="0 0 2083 357" fill="none" xmlns="http://www.w3.org/2000/svg">
<path d="M129.414 350.988V262.218H56.7578V350.988H0.0683594V128.917H56.7578V212.413H129.414V128.917H186.104V350.988H129.414Z" fill="white"/>
<path d="M349.141 350.988V332.97H348.555C344.355 340.978 337.373 347.081 327.607 351.281C319.209 354.894 309.98 356.7 299.922 356.7C274.824 356.7 254.463 348.058 238.838 330.773C223.799 313.976 216.279 292.931 216.279 267.638C216.279 242.736 223.945 221.837 239.277 204.943C255.195 187.462 275.41 178.722 299.922 178.722C309.883 178.722 319.062 180.577 327.461 184.288C336.836 188.39 343.867 194.347 348.555 202.159H349.141V184.435H398.945V350.988H349.141ZM349.141 267.638C349.141 255.431 345.186 245.323 337.275 237.316C329.365 229.308 319.355 225.304 307.246 225.304C295.234 225.304 285.322 229.503 277.51 237.902C269.893 246.007 266.084 256.115 266.084 268.224C266.084 279.845 270.039 289.708 277.949 297.814C286.055 306.017 295.918 310.118 307.539 310.118C319.551 310.118 329.512 306.066 337.422 297.96C345.234 289.855 349.141 279.747 349.141 267.638Z" fill="white"/>
<path d="M435.273 166.857V128.917H485.078V166.857H435.273ZM435.273 350.988V184.435H485.078V350.988H435.273Z" fill="white"/>
<path d="M646.064 300.011C646.064 317.687 638.984 331.798 624.824 342.345C612.031 351.915 596.504 356.7 578.242 356.7C560.078 356.7 544.893 352.062 532.686 342.784C519.697 332.921 512.275 319.152 510.42 301.476H559.932C561.396 311.73 567.695 316.857 578.828 316.857C583.125 316.857 586.982 315.782 590.4 313.634C594.307 311.193 596.26 307.921 596.26 303.82C596.26 298.644 593.623 294.396 588.35 291.075L581.025 287.56L552.168 277.159C540.547 272.96 531.465 267.736 524.922 261.486C516.621 253.673 512.471 244.396 512.471 233.654C512.471 217.15 519.209 203.673 532.686 193.224C545.088 183.556 559.883 178.722 577.07 178.722C594.551 178.722 608.955 183.068 620.283 191.759C632.49 201.036 639.375 214.22 640.938 231.31H592.012C591.719 222.911 586.543 218.712 576.484 218.712C567.012 218.712 562.275 222.423 562.275 229.845C562.275 235.411 566.67 239.952 575.459 243.468C578.389 244.738 582.832 246.251 588.789 248.009C589.277 248.107 589.912 248.253 590.693 248.448L604.17 252.697C610.127 254.65 615.254 256.7 619.551 258.849C624.824 261.486 629.268 264.513 632.881 267.931C641.67 276.036 646.064 286.73 646.064 300.011Z" fill="white"/>
<path d="M795.918 350.988V332.97H795.332C791.133 340.978 784.15 347.081 774.385 351.281C765.986 354.894 756.758 356.7 746.699 356.7C721.602 356.7 701.24 348.058 685.615 330.773C670.576 313.976 663.057 292.931 663.057 267.638C663.057 242.736 670.723 221.837 686.055 204.943C701.973 187.462 722.188 178.722 746.699 178.722C756.66 178.722 765.84 180.577 774.238 184.288C783.613 188.39 790.645 194.347 795.332 202.159H795.918V184.435H845.723V350.988H795.918ZM795.918 267.638C795.918 255.431 791.963 245.323 784.053 237.316C776.143 229.308 766.133 225.304 754.023 225.304C742.012 225.304 732.1 229.503 724.287 237.902C716.67 246.007 712.861 256.115 712.861 268.224C712.861 279.845 716.816 289.708 724.727 297.814C732.832 306.017 742.695 310.118 754.316 310.118C766.328 310.118 776.289 306.066 784.199 297.96C792.012 289.855 795.918 279.747 795.918 267.638Z" fill="white"/>
<path d="M986.494 350.988V260.021C986.494 249.181 984.932 241.124 981.807 235.851C977.803 229.015 970.674 225.597 960.42 225.597C949.58 225.597 941.914 228.917 937.422 235.558C933.711 241.027 931.855 249.327 931.855 260.46V350.988H882.051V184.435H928.486V202.159H929.219C938.789 186.534 953.877 178.722 974.482 178.722C991.377 178.722 1005.59 183.556 1017.11 193.224C1024.34 199.279 1029.51 207.433 1032.64 217.687C1035.08 225.695 1036.3 235.411 1036.3 246.837V350.988H986.494Z" fill="white"/>
<path d="M1074.97 350.988V300.011H1126.83V350.988H1074.97Z" fill="white"/>
<path d="M1337.62 267.638C1337.62 293.029 1329.02 314.122 1311.84 330.919C1294.75 347.716 1273.41 356.115 1247.82 356.115C1222.24 356.115 1200.95 347.716 1183.96 330.919C1166.77 314.122 1158.17 293.029 1158.17 267.638C1158.17 242.15 1166.77 221.007 1183.96 204.21C1200.95 187.413 1222.24 179.015 1247.82 179.015C1273.41 179.015 1294.75 187.413 1311.84 204.21C1329.02 221.007 1337.62 242.15 1337.62 267.638ZM1287.81 267.638C1287.81 256.115 1284.05 246.3 1276.53 238.195C1268.82 229.796 1259.25 225.597 1247.82 225.597C1236.49 225.597 1226.97 229.796 1219.26 238.195C1211.74 246.3 1207.98 256.115 1207.98 267.638C1207.98 279.064 1211.74 288.878 1219.26 297.081C1226.97 305.382 1236.49 309.532 1247.82 309.532C1259.25 309.532 1268.82 305.382 1276.53 297.081C1284.05 288.878 1287.81 279.064 1287.81 267.638Z" fill="white"/>
<path d="M1470.19 350.988V260.021C1470.19 249.181 1468.62 241.124 1465.5 235.851C1461.49 229.015 1454.37 225.597 1444.11 225.597C1433.27 225.597 1425.61 228.917 1421.11 235.558C1417.4 241.027 1415.55 249.327 1415.55 260.46V350.988H1365.74V184.435H1412.18V202.159H1412.91C1422.48 186.534 1437.57 178.722 1458.17 178.722C1475.07 178.722 1489.28 183.556 1500.8 193.224C1508.03 199.279 1513.2 207.433 1516.33 217.687C1518.77 225.695 1519.99 235.411 1519.99 246.837V350.988H1470.19Z" fill="white"/>
<path d="M1555.29 350.988V128.917H1605.1V350.988H1555.29Z" fill="white"/>
<path d="M1641.13 166.857V128.917H1690.94V166.857H1641.13ZM1641.13 350.988V184.435H1690.94V350.988H1641.13Z" fill="white"/>
<path d="M1831.42 350.988V260.021C1831.42 249.181 1829.85 241.124 1826.73 235.851C1822.72 229.015 1815.6 225.597 1805.34 225.597C1794.5 225.597 1786.84 228.917 1782.34 235.558C1778.63 241.027 1776.78 249.327 1776.78 260.46V350.988H1726.97V184.435H1773.41V202.159H1774.14C1783.71 186.534 1798.8 178.722 1819.4 178.722C1836.3 178.722 1850.51 183.556 1862.03 193.224C1869.26 199.279 1874.43 207.433 1877.56 217.687C1880 225.695 1881.22 235.411 1881.22 246.837V350.988H1831.42Z" fill="white"/>
<path d="M2082.78 269.689C2082.78 274.474 2082.39 278.868 2081.61 282.872H1956.81C1959.93 303.868 1972.92 314.366 1995.77 314.366C2007.69 314.366 2017.79 309.191 2026.09 298.839H2077.07C2069.65 316.124 2059 329.894 2045.14 340.148C2030.39 350.988 2013.94 356.407 1995.77 356.407C1971.46 356.407 1950.7 347.765 1933.52 330.48C1916.23 313.292 1907.59 292.54 1907.59 268.224C1907.59 243.81 1916.04 222.863 1932.93 205.382C1950.02 187.609 1970.67 178.722 1994.89 178.722C2020.09 178.722 2041.13 187.609 2058.03 205.382C2074.53 222.863 2082.78 244.298 2082.78 269.689ZM2032.98 249.327C2028.88 230.284 2016.28 220.763 1995.19 220.763C1974.09 220.763 1961.49 230.284 1957.39 249.327H2032.98Z" fill="white"/>
<path d="M1222.83 109.416C1222.83 109.416 1246.02 71.75 1202.61 33.8378C1202.61 33.8378 1211.73 21.8979 1198.16 14.8817L1164.86 0.110667C1164.86 0.110667 1162.15 -0.627882 1163.26 1.71086L1170.54 11.1889C1170.54 11.1889 1175.1 18.2051 1165.97 16.728C1165.97 16.728 1078.77 -5.30537 1035.48 68.4265C1035.48 68.4265 987.868 72.1193 978.494 104.985C978.494 104.985 975.657 111.509 982.687 109.416L1013.4 103.877L1024.25 126.28C1024.25 126.28 1025.61 132.557 1031.04 126.28C1031.04 126.28 1066.93 101.415 1044.36 73.2271C1044.36 73.2271 1068.16 53.0401 1116.27 63.3798L1105.91 70.5191C1105.91 70.5191 1127.86 72.6116 1132.79 76.3044C1132.79 76.3044 1133.78 71.2576 1136.86 74.2118C1136.74 74.2118 1161.16 122.218 1222.83 109.416Z" fill="white"/>
</svg>
