<?xml version="1.0" encoding="utf-8"?>
<!-- Generator: Adobe Illustrator 21.0.2, SVG Export Plug-In . SVG Version: 6.00 Build 0)  -->
<svg version="1.1" id="Capa_1" xmlns="http://www.w3.org/2000/svg" xmlns:xlink="http://www.w3.org/1999/xlink" x="0px" y="0px"
	 viewBox="0 0 512 512" style="enable-background:new 0 0 512 512;" xml:space="preserve">
<style type="text/css">
	.st0{fill:#FFFFFF;}
</style>
<path class="st0" d="M121.4,511c-7.2,0-14.4-2-20.7-6c-10.9-6.9-17.7-18.7-18.1-31.6l-1.3-41.3C29.6,385.6,1,320.4,1,248.5
	c0-68.7,26.3-131.8,74.1-177.9C122.4,25.1,186.8,0,256.5,0s134.1,25.1,181.4,70.6c47.8,46,74.1,109.2,74.1,177.9
	c0,68.7-26.3,131.8-74.1,177.8c-47.3,45.5-111.7,70.6-181.4,70.6c-25.1,0-49.7-3.2-73.1-9.6l-46.4,20.5
	C132,509.9,126.7,511,121.4,511z M256.5,39.9c-122.9,0-215.6,89.6-215.6,208.5c0,60.5,23.9,115.3,67.3,154.1c8,7.2,12.6,17,13,27.6
	l0,0.1l1.2,40.3l45.2-19.9c8.1-3.6,17.3-4.3,25.9-1.9c20.1,5.5,41.3,8.3,62.9,8.3c122.9,0,215.6-89.6,215.6-208.5
	C472.1,129.6,379.4,39.9,256.5,39.9z M130.9,330l74.6-57.5c5-3.8,12-3.8,17.1,0l55.2,42.9c16.5,12.3,40.2,8,51.3-9.4l69.4-110
	c6.7-10.5-6.3-22.4-16.3-14.9l-74.6,56.5c-5,3.8-12,3.8-17.1,0l-55.2-41.9c-16.5-12.3-40.2-8-51.3,9.4l-69.4,110
	C107.9,325.6,120.9,337.5,130.9,330z"/>
</svg>
